<svg version="1.1" id="Layer_1" xmlns="http://www.w3.org/2000/svg" xmlns:xlink="http://www.w3.org/1999/xlink" x="0px" y="0px"
	 width="100%" viewBox="0 0 1350 1350" enable-background="new 0 0 1350 1350" xml:space="preserve">
<path fill="#000000" opacity="1.000000" stroke="none" 
	d="
M1188.000000,1351.000000 
	C793.500000,1351.000000 399.500000,1350.993896 5.500023,1351.093140 
	C1.750932,1351.093994 0.906269,1350.249023 0.907094,1346.500000 
	C1.005494,899.500000 1.005495,452.500000 0.907094,5.500021 
	C0.906268,1.750954 1.750951,0.906268 5.500020,0.907094 
	C452.500000,1.005495 899.500000,1.005495 1346.500000,0.907094 
	C1350.249023,0.906268 1351.093872,1.750952 1351.093018,5.500020 
	C1350.994629,452.500000 1350.994629,899.500000 1351.093018,1346.500000 
	C1351.093872,1350.249023 1350.250610,1351.106934 1346.499756,1351.096680 
	C1293.833496,1350.954346 1241.166626,1351.000000 1188.000000,1351.000000 
z"/>
<path fill="#E94646" opacity="1.000000" stroke="none" 
	d="
M695.304321,697.719604 
	C700.049927,708.145264 704.489319,718.294739 709.136841,728.347961 
	C710.687866,731.702942 710.372559,733.130493 706.289551,733.044128 
	C698.460388,732.878418 690.620972,732.851990 682.794617,733.074585 
	C679.988220,733.154480 678.764099,732.142151 677.790894,729.656250 
	C675.661621,724.217407 673.267395,718.878723 670.851501,713.558044 
	C670.214844,712.155884 669.484253,710.869202 667.282715,710.925537 
	C656.342651,711.205688 645.462097,709.454590 634.489929,709.895325 
	C631.451904,710.017334 629.621521,710.639893 628.636719,713.665833 
	C627.783203,716.288208 626.418091,718.741699 625.323975,721.289185 
	C624.717285,722.701599 624.127441,724.076172 622.238220,723.976929 
	C620.262329,723.873108 617.654358,724.486389 616.464417,723.461121 
	C614.792053,722.020325 616.882324,719.818848 617.526855,718.137451 
	C623.336304,702.982849 623.394287,703.005127 639.648865,703.005127 
	C650.148071,703.005127 660.648682,703.099976 671.145447,702.940002 
	C673.865784,702.898499 675.078308,703.684875 676.091187,706.315430 
	C678.433105,712.397095 681.504700,718.197266 683.861938,724.273926 
	C684.576721,726.116516 685.539307,725.973877 686.794495,725.984680 
	C690.618958,726.017517 694.443970,725.996643 698.887085,725.996643 
	C694.919250,717.012268 691.101868,708.436340 687.339539,699.836304 
	C677.852478,678.150696 668.434143,656.434753 658.853821,634.790527 
	C657.837463,632.494446 657.029907,628.476501 655.062012,628.493225 
	C652.203003,628.517578 652.026123,632.500183 650.934692,634.957825 
	C645.373230,647.480042 639.707153,659.955994 634.180176,672.493286 
	C626.681152,689.503845 619.313477,706.572388 611.772095,723.563965 
	C610.988098,725.330261 610.978516,725.979858 612.996094,725.986694 
	C613.995972,725.990051 614.995850,725.996033 615.995728,725.998840 
	C626.903809,726.029602 626.930725,726.040466 631.081360,715.872498 
	C631.916687,713.826172 633.009216,712.843445 635.440247,712.886047 
	C644.603333,713.046692 653.771118,712.926392 662.936890,712.965210 
	C665.538269,712.976257 669.066895,716.905151 668.939941,719.420959 
	C668.827454,721.650757 667.126831,720.953369 665.991821,720.963074 
	C658.659546,721.025879 651.272156,721.543823 644.010986,720.823242 
	C638.211365,720.247681 635.221802,722.541321 634.257019,727.610107 
	C633.373596,732.250916 630.893860,733.242004 626.626526,733.078796 
	C618.971619,732.786133 611.295837,732.900879 603.632202,733.037842 
	C600.110962,733.100769 599.179321,732.117310 600.735718,728.733398 
	C607.680359,713.634644 614.545288,698.498596 621.343933,683.333435 
	C629.938354,664.162781 638.462341,644.960388 646.955261,625.744568 
	C648.020447,623.334656 648.496643,620.544128 652.116089,620.996155 
	C655.991089,621.480103 660.273987,619.328979 662.763977,625.141113 
	C672.316772,647.438660 682.400696,669.508728 692.301941,691.656799 
	C693.170105,693.598877 694.150879,695.490601 695.304321,697.719604 
z"/>
<path fill="#E94545" opacity="1.000000" stroke="none" 
	d="
M897.979736,709.005005 
	C891.676514,714.222839 885.327332,714.353821 879.074890,709.622925 
	C875.336670,706.794434 874.496521,710.872559 873.467957,712.268005 
	C869.223450,718.026550 868.495972,716.923462 874.304993,720.987427 
	C889.262756,731.451660 912.010681,723.766541 915.096741,702.900940 
	C915.903442,697.446716 915.972534,692.051575 915.970459,686.603333 
	C915.963013,666.447266 916.007080,646.290955 915.927429,626.135254 
	C915.914490,622.851685 916.307678,620.720581 920.466248,620.887451 
	C923.331665,621.002502 924.062805,621.864502 924.051758,624.618347 
	C923.958069,647.939026 924.442993,671.272522 923.800659,694.575928 
	C923.500000,705.483948 921.438782,716.459717 912.821899,724.674500 
	C907.107971,730.121887 900.072937,732.320068 892.411499,733.001526 
	C881.003479,734.016174 871.147156,730.854919 862.945679,722.596619 
	C859.860840,719.490417 859.413452,716.808777 862.288147,713.390686 
	C866.058044,708.908264 869.743286,704.338867 873.196167,699.610657 
	C875.700745,696.180969 877.840332,696.173035 879.928894,699.707153 
	C880.446533,700.583069 880.849915,701.393494 881.736206,701.919800 
	C884.648804,703.649719 887.616760,706.652588 891.096008,704.494629 
	C894.562866,702.344482 894.910950,698.095459 894.945557,694.337585 
	C895.080627,679.679871 895.001953,665.020203 895.002686,650.361267 
	C895.003113,642.032288 895.107056,633.701416 894.950317,625.375366 
	C894.891541,622.252747 895.719849,620.996887 899.120361,620.917908 
	C913.001709,620.595398 912.999207,620.482727 912.999146,634.296143 
	C912.999146,653.286194 912.861084,672.277771 913.083130,691.265259 
	C913.149475,696.942810 912.311035,702.384766 910.932861,707.794922 
	C909.232178,714.471313 900.097168,722.089966 892.992065,722.996277 
	C886.760254,723.791260 880.940125,723.257385 875.537598,719.408691 
	C873.527405,717.976807 872.504028,717.139709 874.056885,714.972168 
	C875.521667,712.927551 876.976990,710.918213 880.026306,712.466736 
	C893.180054,719.146912 903.718323,712.883728 905.074341,698.010864 
	C907.072632,676.093140 905.435730,654.148621 905.969849,632.224304 
	C905.997437,631.091248 906.678162,629.148865 904.594910,629.145447 
	C902.177063,629.141479 903.044922,631.288330 903.041016,632.537476 
	C902.980774,651.860474 903.255920,671.189209 902.849487,690.503845 
	C902.718689,696.717468 902.570557,703.364746 897.979736,709.005005 
z"/>
<path fill="#E84545" opacity="1.000000" stroke="none" 
	d="
M783.239014,709.705017 
	C780.544556,704.647339 778.020325,699.927063 775.603943,695.152222 
	C774.874573,693.710815 774.114929,692.638184 772.294434,693.041260 
	C770.262939,693.491089 771.047546,695.150818 771.040283,696.284973 
	C770.973022,706.942688 770.784302,717.607483 771.107361,728.255798 
	C771.232910,732.393311 769.795349,733.218994 766.055725,733.078308 
	C758.904846,732.809265 751.733704,732.877136 744.577454,733.059937 
	C741.763794,733.131836 740.953979,732.286316 740.961426,729.456116 
	C741.052551,694.650940 741.060852,659.845276 740.955994,625.040161 
	C740.945984,621.734741 742.000305,620.972107 745.199585,620.863647 
	C748.966736,620.735962 749.043640,622.549866 749.038147,625.365356 
	C748.976624,657.006531 749.077209,688.648376 748.908386,720.288757 
	C748.885376,724.598816 749.637756,726.372986 754.476196,726.123413 
	C762.987610,725.684326 763.004333,726.011841 763.004517,717.356812 
	C763.004700,707.864441 763.108154,698.370239 762.944641,688.880676 
	C762.893311,685.903564 763.652954,684.896851 766.817444,684.863037 
	C779.350464,684.729370 779.253113,684.657593 784.990967,695.782166 
	C789.772339,705.052307 794.860229,714.164001 799.696594,723.406433 
	C800.550293,725.037842 801.364990,726.074219 803.370728,726.023193 
	C807.468628,725.918762 811.571045,725.991943 816.133667,725.991943 
	C811.971924,715.573792 805.914978,706.839783 801.628296,697.228577 
	C800.922913,695.646973 798.559204,693.642700 801.527893,692.379761 
	C803.708557,691.452087 806.088562,689.529053 808.483398,693.543030 
	C811.667603,698.880188 814.022095,704.612000 817.268799,709.917603 
	C821.656982,717.088440 825.201782,724.775452 829.500305,732.989868 
	C818.434937,732.989868 808.182739,732.995850 797.930542,732.984924 
	C795.809326,732.982666 794.804504,731.550293 793.924255,729.865662 
	C790.460754,723.236389 786.946289,716.633850 783.239014,709.705017 
z"/>
<path fill="#E84545" opacity="1.000000" stroke="none" 
	d="
M759.999207,686.000000 
	C759.998901,697.495178 759.889221,708.492065 760.061218,719.484558 
	C760.116760,723.033691 758.783752,723.961121 755.391663,724.119080 
	C751.625854,724.294373 752.002136,722.204773 752.003967,719.807678 
	C752.028198,688.488098 752.071899,657.168396 751.949646,625.849304 
	C751.935608,622.258179 752.750916,620.818237 756.636414,620.914124 
	C766.625793,621.160706 776.677063,620.354431 786.607971,621.155029 
	C798.996521,622.153748 810.835693,625.205078 818.265015,636.768799 
	C824.099487,645.850159 823.934448,655.924927 822.473511,665.885376 
	C820.429260,679.821289 811.109802,687.510376 798.063293,690.766785 
	C794.637085,691.621948 795.760254,692.553833 796.691650,694.291199 
	C801.620728,703.485352 806.537109,712.686340 811.446533,721.891052 
	C811.661987,722.294922 811.766785,722.757751 811.928894,723.208984 
	C804.080505,725.167419 803.352844,724.761658 799.985596,718.274963 
	C795.271423,709.193604 790.334045,700.228455 785.586548,691.164062 
	C782.973633,686.175232 783.554871,685.678589 789.038025,684.936279 
	C805.938782,682.648132 816.276428,673.576904 815.827515,656.317017 
	C815.444397,641.587830 807.018005,633.033569 792.906433,630.000732 
	C782.888977,627.847778 772.734924,629.540405 762.660950,628.983093 
	C759.274658,628.795837 760.019470,631.180603 760.016479,633.023071 
	C759.988098,650.515381 759.999329,668.007690 759.999207,686.000000 
z"/>
<path fill="#E94646" opacity="1.000000" stroke="none" 
	d="
M655.671753,653.505554 
	C652.004639,655.009094 652.048218,658.818665 650.748718,661.765930 
	C646.098572,672.313660 641.767090,683.001953 637.202820,693.905457 
	C645.565125,693.905457 653.383240,693.905457 661.731079,693.905457 
	C659.487549,689.152710 657.371948,684.671082 655.061401,679.776306 
	C651.241028,684.085938 652.368835,694.326965 641.871338,690.363586 
	C645.546326,681.291138 649.261780,672.144348 652.946655,662.985352 
	C653.344482,661.996521 653.893494,661.117188 654.978943,661.139282 
	C656.034546,661.160889 656.571289,662.002747 657.006958,662.998108 
	C661.969116,674.332947 666.929932,685.669128 672.026428,696.943787 
	C673.268799,699.692200 673.542480,701.088196 669.704590,701.048401 
	C656.213806,700.908386 642.720093,700.930786 629.228638,701.036438 
	C625.660645,701.064331 625.348206,699.580811 626.581238,696.819031 
	C635.401245,677.064697 644.231689,657.314880 652.960205,637.520203 
	C653.408997,636.502441 653.842773,635.678528 654.807007,635.470703 
	C656.467041,635.113159 656.447632,636.872925 656.811523,637.664490 
	C663.200195,651.560791 669.491455,665.502014 675.756714,679.454651 
	C681.563599,692.386353 687.312500,705.344055 693.093567,718.287415 
	C693.950867,720.206726 695.303528,722.917480 692.792053,723.660278 
	C690.669800,724.288025 687.139221,725.767517 685.494507,722.020935 
	C675.659851,699.618408 665.831909,677.212891 656.015198,654.802612 
	C655.887817,654.511902 655.934753,654.144897 655.671753,653.505554 
z"/>
<path fill="#E84545" opacity="1.000000" stroke="none" 
	d="
M792.930786,659.064209 
	C793.313110,653.477234 791.476990,651.661682 785.697388,650.975098 
	C779.287842,650.213684 772.873901,649.687012 766.425781,650.031677 
	C763.919983,650.165649 762.803223,649.496155 762.949951,646.745300 
	C763.162598,642.758972 762.989014,638.752747 763.013000,634.755188 
	C763.020569,633.490845 762.619751,631.899841 764.800232,632.011047 
	C774.990723,632.530640 785.311401,630.609497 795.363098,633.767883 
	C805.356445,636.907959 811.312378,642.964783 812.150574,654.024963 
	C812.820374,662.862305 811.639587,670.484253 804.261292,676.264832 
	C799.125549,680.288452 792.973633,681.369629 786.864197,681.869873 
	C780.080322,682.425354 773.210693,681.840942 766.388733,682.065918 
	C763.280151,682.168457 762.977539,680.810730 762.918274,678.235229 
	C762.855591,675.511597 763.867249,674.977478 766.359375,674.945374 
	C775.079163,674.832886 783.815796,675.695618 792.457031,673.149048 
	C799.155823,671.174988 804.157288,666.970642 804.906494,660.436890 
	C805.746643,653.109070 803.073425,647.000000 797.040710,643.089417 
	C789.392212,638.131348 780.706177,640.435120 772.413513,640.078918 
	C771.398254,640.035278 770.984436,640.739990 771.100891,641.716736 
	C771.271973,643.152466 772.420227,642.900940 773.356506,642.984497 
	C778.590698,643.451294 783.798462,642.900024 789.117004,643.749207 
	C799.180969,645.356079 801.405945,651.290894 801.012817,658.062317 
	C800.640808,664.469666 795.419983,670.169189 787.656067,670.800110 
	C780.429321,671.387329 773.203369,672.542114 765.872681,672.084717 
	C763.272095,671.922424 762.898438,670.925842 762.970947,668.761780 
	C763.093689,665.101379 763.119385,661.428955 762.966187,657.770813 
	C762.850464,655.005432 763.824341,653.865662 766.692505,653.930786 
	C769.411682,653.992493 771.573792,654.476807 770.952454,657.749939 
	C769.787964,663.884766 773.091064,664.406738 777.927673,664.075134 
	C783.344421,663.703796 788.850220,664.084717 792.930786,659.064209 
z"/>
<path fill="#E94646" opacity="1.000000" stroke="none" 
	d="
M480.279541,656.997192 
	C473.361389,656.947876 465.012634,648.544617 465.005768,642.077576 
	C464.999756,636.416077 465.012238,630.754639 464.999268,625.093140 
	C464.995514,623.460449 465.225616,621.803101 464.119446,620.334412 
	C462.714722,618.469543 463.107147,616.659302 464.737885,615.195496 
	C466.016602,614.047729 467.726746,613.507874 469.338562,614.106506 
	C471.592102,614.943420 471.319916,617.195557 470.919098,618.845337 
	C469.123840,626.234619 470.279999,633.707520 470.039337,641.132629 
	C469.882019,645.986328 475.965118,652.509155 480.656250,651.821960 
	C491.593689,650.219910 499.307159,654.358093 506.474121,662.516785 
	C510.953613,667.616211 513.356445,672.132629 513.181885,678.990112 
	C512.925842,689.048340 512.021912,699.189392 513.944458,709.237366 
	C514.463379,711.949219 513.891663,714.181396 510.156677,714.044983 
	C506.424988,713.908752 506.695374,711.340393 507.081909,709.128967 
	C509.102081,697.571594 507.459869,685.936523 508.047302,674.357422 
	C508.147949,672.372986 507.630341,670.867554 506.052917,669.594177 
	C504.766602,668.555603 503.509460,667.389709 502.545349,666.058655 
	C497.110596,658.555237 489.979645,655.273376 480.279541,656.997192 
z"/>
<path fill="#E94646" opacity="1.000000" stroke="none" 
	d="
M502.792358,703.988403 
	C497.615997,703.440674 497.187805,702.367981 498.907288,698.057983 
	C501.384460,691.848816 500.816376,684.987305 499.453857,678.996704 
	C498.543427,674.993713 493.293457,671.955139 489.921997,668.547729 
	C488.863678,667.478210 487.381958,668.031494 486.102783,668.021851 
	C479.110840,667.969299 472.108887,667.781311 465.129944,668.087219 
	C461.626465,668.240723 459.271790,667.075745 456.961853,664.590759 
	C452.431213,659.716858 447.634369,655.088379 442.889282,650.417664 
	C441.871216,649.415588 441.107513,647.911133 439.313263,648.009460 
	C437.062225,648.132874 435.836517,647.197021 435.993896,644.810669 
	C436.134003,642.687195 436.806976,640.808167 439.004028,640.131042 
	C441.324921,639.415771 442.882202,640.828369 443.871277,642.667542 
	C448.210602,650.736633 456.017426,655.598389 461.849426,662.279663 
	C462.897827,663.480713 464.341522,662.948181 465.608673,662.965027 
	C470.269409,663.027039 475.099487,663.780945 479.559906,662.833862 
	C490.680969,660.472351 496.620911,667.531738 502.935028,674.375244 
	C503.977081,675.504700 503.890198,676.718872 504.017120,678.030396 
	C504.725281,685.349426 502.341034,692.882812 505.792297,700.067932 
	C506.424835,701.384949 505.614166,703.680115 502.792358,703.988403 
z"/>
<path fill="#E84545" opacity="1.000000" stroke="none" 
	d="
M546.005798,648.944580 
	C539.952148,652.304871 535.873169,657.417664 531.681519,662.213806 
	C529.588989,664.608093 530.765442,668.687561 531.112427,671.889954 
	C531.778564,678.038086 530.131470,682.897278 525.030334,686.484741 
	C522.478149,688.279602 521.705322,690.702026 521.954773,693.793701 
	C522.591125,701.679993 520.958069,709.659119 522.959900,717.511414 
	C523.498596,719.624329 522.708557,721.535645 520.733704,722.582764 
	C519.394714,723.292847 517.711365,723.556213 516.680176,722.088379 
	C515.481567,720.382141 513.968811,718.474121 516.064514,716.387207 
	C517.626953,714.831421 516.910217,712.936157 516.969421,711.192200 
	C517.087708,707.701843 517.349609,704.163330 516.936279,700.718628 
	C515.920349,692.252563 517.468262,684.970642 525.074463,679.951660 
	C527.428345,678.398560 527.329712,675.885559 526.947266,673.638306 
	C525.221191,663.498169 528.581970,655.634216 536.873169,649.611572 
	C538.520020,648.415283 540.518250,647.077393 540.926697,644.767517 
	C541.344177,642.406860 542.136780,640.741333 544.964966,640.978577 
	C546.443481,641.102722 548.233337,640.697754 548.787842,642.515503 
	C549.586304,645.132935 548.922180,647.423218 546.005798,648.944580 
z"/>
<path fill="#E84343" opacity="1.000000" stroke="none" 
	d="
M553.000732,678.158325 
	C552.908508,689.214111 554.256592,687.932922 543.765015,687.990662 
	C536.115906,688.032715 531.004456,693.114380 531.002380,700.765991 
	C531.000916,706.092529 530.971069,711.419312 531.016663,716.745483 
	C531.036011,719.005249 530.665283,721.227173 532.495178,723.292908 
	C533.842102,724.813477 533.023499,726.701172 531.434631,728.065430 
	C529.962646,729.329224 528.442993,729.380493 526.901611,728.353149 
	C525.407227,727.357178 524.134583,725.589050 525.113770,724.158936 
	C528.680603,718.949951 526.344177,713.235718 526.966797,707.802795 
	C527.211548,705.666870 527.271851,703.440186 526.957214,701.322998 
	C526.017700,695.001282 528.549805,690.567444 533.044312,686.147400 
	C536.641052,682.610168 540.383728,682.898132 544.408264,683.057312 
	C547.246216,683.169434 548.315979,682.267517 548.031616,679.412903 
	C547.600525,675.084534 548.176636,671.069153 550.810730,667.252258 
	C551.963989,665.581116 552.939819,664.843201 554.657471,665.081360 
	C556.443359,665.329163 557.658508,666.566467 557.916504,668.336975 
	C558.144531,669.901367 558.520203,671.991577 556.212097,672.294250 
	C552.630554,672.763855 552.828247,675.162231 553.000732,678.158325 
z"/>
<path fill="#E84545" opacity="1.000000" stroke="none" 
	d="
M489.976288,689.613525 
	C489.169800,687.320740 486.669067,685.595764 488.460266,683.495605 
	C489.686401,682.058044 491.489990,680.572693 494.046417,681.424866 
	C496.536987,682.255066 496.254272,684.168091 495.941406,685.829651 
	C493.894226,696.702515 495.153931,707.664856 495.165558,718.567749 
	C495.171021,723.675537 494.047821,727.509521 489.990173,730.568420 
	C488.572906,731.636902 487.482117,733.138367 486.176025,734.511658 
	C488.030884,735.467834 489.503601,734.878845 490.527435,733.851440 
	C492.418427,731.953735 494.255219,733.276367 495.374329,734.247009 
	C496.783997,735.469543 496.224396,737.712036 495.719360,739.381592 
	C495.094543,741.447083 492.686493,741.593750 491.533417,740.858704 
	C486.776672,737.826416 481.563538,739.553711 475.382141,738.689087 
	C479.484161,734.575134 483.002167,730.794983 486.803650,727.325439 
	C489.211090,725.128113 490.144531,722.770874 490.076660,719.498840 
	C489.873108,709.687500 489.998291,699.869202 489.976288,689.613525 
z"/>
<path fill="#EB4747" opacity="1.000000" stroke="none" 
	d="
M436.173767,653.003052 
	C437.762512,652.934204 439.265869,652.894165 439.531403,654.210632 
	C440.221436,657.631470 443.359558,659.041260 445.077484,661.558044 
	C452.765717,672.821045 463.506287,676.123657 476.467896,674.037231 
	C477.905853,673.805786 479.329620,674.090149 480.635345,672.936768 
	C482.382965,671.393127 484.208008,671.660217 485.891754,673.385681 
	C487.278503,674.806824 487.384216,676.362488 486.487671,677.908447 
	C485.351654,679.867310 483.139862,680.810120 481.341400,679.874695 
	C474.237823,676.180054 466.732483,678.399170 459.448944,678.153015 
	C455.160034,678.008118 452.165222,676.809387 449.068848,673.843018 
	C444.245026,669.221741 440.557190,663.380981 434.078979,660.399658 
	C430.795563,658.888550 431.652679,655.850708 436.173767,653.003052 
z"/>
<path fill="#EB4444" opacity="1.000000" stroke="none" 
	d="
M516.968994,653.089539 
	C516.324341,647.382629 517.496521,643.151611 521.840576,639.454285 
	C525.695312,636.173462 524.724304,631.503357 522.713379,627.292664 
	C520.976868,623.656799 522.106018,621.096130 525.918274,620.304565 
	C528.365173,619.796448 531.208069,622.786987 529.790161,624.861450 
	C527.029419,628.900574 528.259827,633.157471 528.061218,637.325867 
	C527.961182,639.425476 527.817993,641.296021 525.932312,642.537109 
	C522.279846,644.941223 521.706787,648.439514 521.938416,652.492126 
	C522.194519,656.973450 521.963196,661.481018 522.015137,665.976440 
	C522.033691,667.576233 521.609497,669.249207 523.107056,670.616577 
	C525.216919,672.543091 523.404785,674.333496 522.443359,675.854004 
	C521.261658,677.722900 519.120117,677.265869 517.463501,676.702759 
	C515.418213,676.007690 515.689819,673.830139 516.063660,672.372925 
	C517.662048,666.143372 516.669556,659.835388 516.968994,653.089539 
z"/>
<path fill="#EB4747" opacity="1.000000" stroke="none" 
	d="
M497.436951,737.148376 
	C500.193909,729.909668 498.524597,722.727661 499.066284,715.687073 
	C499.157562,714.500610 498.175781,712.870911 499.801208,712.160583 
	C501.532898,711.403748 502.472748,712.914185 503.508270,713.949402 
	C507.031799,717.471985 510.495667,721.057800 514.113708,724.480530 
	C515.604736,725.890930 516.635742,727.795227 519.178772,728.158020 
	C521.035034,728.422791 522.056519,730.758179 521.727905,732.367920 
	C521.431091,733.821838 520.797241,736.035889 518.312927,735.991882 
	C516.313049,735.956482 514.849854,736.033997 513.813232,733.399536 
	C512.162354,729.204224 507.887482,726.901062 504.485657,722.938477 
	C503.933350,727.374146 503.600403,730.991516 504.802765,734.856140 
	C505.382629,736.719910 506.178162,739.932129 503.063751,740.805481 
	C500.424072,741.545471 497.709259,741.096619 497.436951,737.148376 
z"/>
<path fill="#E84545" opacity="1.000000" stroke="none" 
	d="
M508.753174,635.746094 
	C507.797516,636.702271 506.976166,637.324463 506.405640,638.125305 
	C502.404938,643.740906 497.120697,646.198364 490.211853,645.026855 
	C488.410492,644.721436 486.681763,645.430908 484.914246,645.807861 
	C483.144409,646.185242 480.810089,646.894836 479.426544,644.803589 
	C478.557068,643.489380 478.927399,642.075989 479.635773,640.613647 
	C480.872040,638.061523 483.247345,638.654053 484.777557,639.193604 
	C487.734558,640.236328 490.665619,639.712097 493.585327,640.036011 
	C496.494568,640.358704 498.658478,639.432068 500.507233,637.161011 
	C501.967712,635.366882 503.691437,633.762634 505.432678,632.226379 
	C509.409210,628.717957 512.790771,625.179688 510.130310,619.152649 
	C509.599792,617.950806 509.017609,615.480225 511.829529,614.779053 
	C513.409851,614.385010 514.917297,613.189636 516.330383,614.890808 
	C517.629700,616.455017 518.405701,618.144592 516.984741,620.135193 
	C516.527222,620.776123 515.956665,621.693665 516.094116,622.346497 
	C517.448608,628.778259 512.631226,631.803467 508.753174,635.746094 
z"/>
<path fill="#E94646" opacity="1.000000" stroke="none" 
	d="
M480.031860,691.227722 
	C478.745544,688.790771 478.000763,686.728638 480.766846,685.441101 
	C482.232117,684.758972 483.688202,682.910095 485.593231,685.022461 
	C487.432770,687.062195 487.747162,689.247681 486.103638,691.265564 
	C484.868713,692.781860 485.014282,694.319031 485.008850,695.934753 
	C484.982574,703.760254 484.877655,711.588684 485.059204,719.410095 
	C485.126068,722.289429 484.371857,724.370483 482.236450,726.377197 
	C480.024567,728.455627 477.356598,730.206604 476.555237,733.647583 
	C476.150269,735.386536 474.194885,736.440857 472.100464,735.945801 
	C470.541260,735.577271 469.560944,734.418884 469.083038,732.952087 
	C468.394867,730.840027 469.675415,729.372070 471.207916,728.391296 
	C472.381439,727.640320 473.826691,727.521484 475.045288,726.475098 
	C479.274506,722.843933 481.947784,718.925964 481.112091,712.847168 
	C480.149506,705.845337 482.042877,698.646790 480.031860,691.227722 
z"/>
<path fill="#E94646" opacity="1.000000" stroke="none" 
	d="
M496.633179,620.201538 
	C495.433258,619.040100 494.635834,618.113708 493.115906,617.895142 
	C490.973267,617.587158 490.077271,615.377319 490.283325,613.864807 
	C490.533875,612.025391 492.147064,610.346558 494.324066,610.036194 
	C496.340668,609.748718 497.404633,610.447876 498.186707,612.740234 
	C499.320526,616.063782 502.614380,618.001770 505.076447,620.412659 
	C507.697235,622.978943 507.705933,625.084595 505.022980,627.490356 
	C503.165375,629.156067 501.320679,630.883911 499.753052,632.813660 
	C497.680237,635.365479 495.227448,636.326538 491.961304,636.063904 
	C489.707428,635.882690 487.445923,635.909729 485.114471,636.736389 
	C483.681213,637.244690 481.249878,638.171997 479.889618,635.726990 
	C479.126465,634.355225 478.408081,632.887573 479.361511,631.546875 
	C480.838470,629.469971 483.304565,629.618408 485.299866,630.229492 
	C486.760223,630.676697 488.198761,630.721802 489.615997,631.046875 
	C494.699646,632.212891 497.511292,628.774292 499.857697,625.520630 
	C501.682922,622.989685 497.731232,622.289917 496.633179,620.201538 
z"/>
<path fill="#EB4747" opacity="1.000000" stroke="none" 
	d="
M472.834595,710.983521 
	C470.186737,711.045593 468.123657,711.136658 467.816071,707.927063 
	C467.713654,706.858154 466.286407,705.862366 465.362915,704.934570 
	C458.790161,698.331177 452.214600,691.729980 445.580627,685.188232 
	C444.218414,683.845032 443.147369,682.267761 440.875275,681.811829 
	C438.213348,681.277649 439.045563,678.674622 439.067413,676.798584 
	C439.093170,674.587036 441.081482,674.132141 442.540802,674.183472 
	C444.150757,674.240173 446.258057,674.585022 446.017548,677.242065 
	C445.838135,679.224609 447.591095,680.056519 448.708374,681.186646 
	C455.375519,687.930359 462.083557,694.634094 468.823761,701.304871 
	C469.850281,702.320801 470.631989,704.067261 472.270844,703.902344 
	C474.761871,703.651489 475.616791,705.255249 475.822235,706.984924 
	C476.024872,708.690796 475.603577,710.622009 472.834595,710.983521 
z"/>
<path fill="#E84545" opacity="1.000000" stroke="none" 
	d="
M460.657379,731.123169 
	C459.343994,727.598328 460.014832,725.689270 463.800110,724.845703 
	C467.218567,724.083923 467.996979,721.945068 464.879211,719.387634 
	C459.700623,715.139709 456.295349,708.893005 449.726440,706.165405 
	C448.064880,705.475342 447.689575,703.611877 448.066711,701.841858 
	C448.412811,700.217529 449.478516,699.065247 451.145355,699.101929 
	C452.450775,699.130615 454.295319,698.021790 455.022034,700.084595 
	C457.582245,707.351929 464.194153,711.153748 469.055145,716.419250 
	C473.083527,720.782898 475.354767,721.988892 469.467285,727.023132 
	C468.558472,727.800293 468.345978,728.943298 467.853027,729.959167 
	C466.291870,733.176758 463.989960,734.494202 460.657379,731.123169 
z"/>
<path fill="#E94545" opacity="1.000000" stroke="none" 
	d="
M540.026428,707.415405 
	C540.446350,709.642334 541.985779,709.690002 543.352234,710.267273 
	C545.077148,710.995728 546.199951,712.749084 545.643005,714.606018 
	C545.165283,716.198914 544.505066,718.147949 542.022949,718.021423 
	C540.146118,717.925842 539.162415,717.420654 537.800415,715.667542 
	C534.608215,711.558655 534.952515,707.156433 534.964111,702.610596 
	C534.981323,695.835022 537.954529,692.515625 544.734497,692.039612 
	C546.150085,691.940186 547.388611,691.485779 548.409424,690.790283 
	C550.487976,689.374207 551.868225,690.726990 553.159912,691.806946 
	C554.633911,693.039307 554.203857,694.922546 553.714600,696.447754 
	C553.142212,698.231873 551.388916,698.008240 549.888306,697.996460 
	C549.721802,697.995117 549.554993,698.002930 549.388855,697.994873 
	C546.537476,697.857056 543.320251,695.365967 540.950745,697.856384 
	C538.647705,700.277039 540.411133,703.916077 540.026428,707.415405 
z"/>
<path fill="#E94646" opacity="1.000000" stroke="none" 
	d="
M463.600098,659.282104 
	C461.593201,654.348206 457.871338,651.225830 454.371826,647.989014 
	C452.735779,646.475708 452.947479,644.738647 453.049774,642.979492 
	C453.301941,638.642761 450.893646,635.948975 447.141296,635.171936 
	C444.458221,634.616333 445.104736,633.188049 445.012543,631.695190 
	C444.903687,629.933533 445.083923,628.057068 447.338104,628.110962 
	C449.051880,628.151855 451.512756,626.748047 452.337616,629.697693 
	C453.734039,634.691406 459.282837,637.581909 458.479309,644.098206 
	C458.145874,646.802185 462.624390,649.887146 465.698792,651.685974 
	C467.732880,652.876038 470.417786,653.275635 469.811951,656.155701 
	C469.216248,658.987427 466.926392,660.184265 463.600098,659.282104 
z"/>
<path fill="#E94646" opacity="1.000000" stroke="none" 
	d="
M433.003113,675.275818 
	C432.265259,682.360535 436.998718,685.291748 441.745178,687.869507 
	C444.370087,689.294983 445.429016,691.052063 444.910278,693.750427 
	C444.305206,696.898193 441.650360,695.796509 439.660400,695.975220 
	C438.754639,696.056519 438.106354,695.746155 437.875916,694.728638 
	C436.903442,690.435303 433.444916,687.987305 430.576904,685.136658 
	C429.423615,683.990295 429.067230,682.801697 428.948212,681.220215 
	C428.698608,677.904846 430.074188,674.401367 427.249420,671.273254 
	C426.566986,670.517517 427.407135,667.358337 429.436096,666.338074 
	C430.825714,665.639282 432.253418,665.820435 433.532288,667.011841 
	C435.077545,668.451477 435.527130,670.040710 434.494659,671.861755 
	C433.940643,672.838745 432.834259,673.516785 433.003113,675.275818 
z"/>
<path fill="#E94545" opacity="1.000000" stroke="none" 
	d="
M542.535522,662.505310 
	C544.755493,660.275696 546.860229,658.483887 547.625671,655.539795 
	C548.037964,653.953552 549.255188,652.707520 551.350403,652.999756 
	C553.237671,653.263000 554.371704,654.404968 554.888977,656.017944 
	C555.542175,658.054932 554.490356,660.043274 552.739380,660.507935 
	C548.680115,661.585327 546.917542,665.191406 544.003662,667.492126 
	C541.388062,669.557312 540.106201,671.819458 542.438171,674.937744 
	C543.565125,676.444641 542.829102,677.630493 541.680786,678.849609 
	C540.163452,680.460449 538.299683,680.223572 536.605774,679.795593 
	C534.796326,679.338440 534.969910,677.563416 535.007996,676.046875 
	C535.150818,670.365234 538.044861,666.196472 542.535522,662.505310 
z"/>
<path fill="#EB4747" opacity="1.000000" stroke="none" 
	d="
M451.640198,723.300293 
	C448.092438,717.031860 444.079193,711.768127 437.405701,709.185181 
	C434.856140,708.198364 436.268494,706.071167 436.086456,704.473022 
	C435.913300,702.953125 436.908142,702.014526 438.530914,702.018311 
	C440.319214,702.022522 441.938934,701.813232 443.030792,704.059509 
	C445.524200,709.189087 449.705475,713.069458 454.517395,715.816895 
	C456.858887,717.153748 457.296814,718.555847 456.891235,720.467957 
	C456.371704,722.917175 455.018921,724.788940 451.640198,723.300293 
z"/>
<path fill="#E94646" opacity="1.000000" stroke="none" 
	d="
M470.264099,696.618591 
	C470.217896,694.694031 469.328796,692.947449 471.114624,691.690857 
	C472.198700,690.928040 472.369568,689.517090 471.704712,688.571228 
	C470.987244,687.550598 469.535797,687.941711 468.419525,688.069092 
	C467.470551,688.177307 466.577423,688.847778 465.634064,688.915955 
	C464.043640,689.031006 462.029053,689.575867 461.295258,687.540833 
	C460.763367,686.065674 460.284058,684.113708 461.755737,682.933167 
	C463.016571,681.921753 464.409149,680.220764 466.472351,681.716370 
	C466.858154,681.996094 467.410919,682.315491 467.824921,682.246460 
	C476.204376,680.848389 475.701172,688.076782 477.847198,692.633667 
	C478.609222,694.251770 477.963409,696.300659 476.788788,697.213623 
	C474.901398,698.680664 472.530243,698.528564 470.264099,696.618591 
z"/>
<path fill="#E84545" opacity="1.000000" stroke="none" 
	d="
M507.846252,641.645264 
	C507.833618,638.536316 509.385742,637.878845 511.759888,637.980713 
	C513.448914,638.053284 514.671570,638.490112 514.965332,640.356812 
	C515.305054,642.515137 514.735901,644.296448 512.888245,645.566467 
	C508.734589,648.421631 508.730927,649.588379 513.205933,652.040527 
	C515.335327,653.207336 515.185059,655.007263 514.896912,656.761780 
	C514.612854,658.491455 513.366150,659.913879 511.561279,659.883545 
	C509.835602,659.854614 508.071594,659.390991 507.950317,656.881409 
	C507.809906,653.975525 504.299072,652.532043 504.808289,648.904785 
	C505.195190,646.148621 505.536346,643.828003 507.846252,641.645264 
z"/>
<path fill="#EB4444" opacity="1.000000" stroke="none" 
	d="
M534.028137,633.722168 
	C534.783325,630.315186 536.309570,628.493225 539.730408,629.932678 
	C543.248291,631.412903 541.805542,633.772705 541.196655,636.404724 
	C540.092224,641.178772 535.520386,643.755920 534.268860,648.327698 
	C533.548279,650.959839 531.354431,649.824585 529.738770,649.951355 
	C527.943848,650.092163 527.090698,649.057190 526.984863,647.242737 
	C526.881775,645.473450 527.244263,644.286682 528.955261,643.193970 
	C532.159973,641.147278 537.651489,640.061768 534.028137,633.722168 
z"/>
<path fill="#E84545" opacity="1.000000" stroke="none" 
	d="
M476.781555,610.711060 
	C477.562103,610.327087 478.028503,610.070312 478.496063,610.068237 
	C479.398438,610.064209 490.855072,620.552856 490.962463,621.419250 
	C491.255585,623.784424 489.968414,625.321777 487.929047,625.866821 
	C486.049225,626.369202 483.904572,626.421936 483.274811,623.738403 
	C482.502136,620.445740 480.677460,618.814209 477.203918,617.711365 
	C474.325439,616.797363 473.929932,613.547058 476.781555,610.711060 
z"/>
</svg>